<svg xmlns="http://www.w3.org/2000/svg" viewBox="0 0 179.14 159.39">
  <defs>
    <style>
      .a {
        fill: #54565a;
      }

      .b {
        fill: #70d44b;
      }
    </style>
  </defs>
  <title>HealthScholars-Vertical-4C</title>
  <g>
    <g>
      <path class="a" d="M25.64,114.06H29v7.39h8.62v-7.39h3.31v17.29H37.57v-7H29v7H25.64Z"/>
      <path class="a" d="M51.32,114.06H64V117H54.63v4.27H63v2.89h-8.4v4.35h9.66v2.89h-13Z"/>
      <path class="a" d="M86.62,131.35l-1.53-3.65H76.64l-1.53,3.65H71.68l7.58-17.29h3.43l7.49,17.29Zm-8.79-6.5H83.9l-3-7.26Z"/>
      <path class="a" d="M98.45,114.06h3.31v14.3h7.46v3H98.45Z"/>
      <path class="a" d="M116.06,114.06h14.1V117h-5.38v14.35h-3.34V117h-5.38Z"/>
      <path class="a" d="M138.68,114.06H142v7.39h8.62v-7.39h3.31v17.29h-3.31v-7H142v7h-3.31Z"/>
      <path class="a" d="M9.69,145a8.15,8.15,0,0,0-2.45-.45,3.42,3.42,0,0,0-1.88.45,1.38,1.38,0,0,0-.69,1.23,1.63,1.63,0,0,0,.48,1.2,3.79,3.79,0,0,0,1.21.79c.49.2,1.15.43,2,.68a21.15,21.15,0,0,1,2.87,1,5.18,5.18,0,0,1,1.92,1.54,4.17,4.17,0,0,1,.79,2.66,4.57,4.57,0,0,1-.85,2.76,5.34,5.34,0,0,1-2.35,1.79,8.88,8.88,0,0,1-3.42.62,10.79,10.79,0,0,1-3.95-.76,11,11,0,0,1-3.36-2l1.38-2.82a10.22,10.22,0,0,0,2.94,1.9,7.7,7.7,0,0,0,3,.7,3.78,3.78,0,0,0,2.17-.54,1.64,1.64,0,0,0,.79-1.44,1.66,1.66,0,0,0-.48-1.22,3.66,3.66,0,0,0-1.22-.78c-.49-.2-1.17-.42-2-.67a23.31,23.31,0,0,1-2.86-1,5,5,0,0,1-1.9-1.49A4.12,4.12,0,0,1,1,146.57a4.36,4.36,0,0,1,.8-2.63,5.2,5.2,0,0,1,2.27-1.75,8.74,8.74,0,0,1,3.4-.61,11.41,11.41,0,0,1,3.32.49,11.57,11.57,0,0,1,2.93,1.33l-1.34,2.89A12.36,12.36,0,0,0,9.69,145Z"/>
      <path class="a" d="M33.6,145.18a5.89,5.89,0,0,0-2.53-.59,5.81,5.81,0,0,0-2.94.77,5.53,5.53,0,0,0-2.1,2.11,6.11,6.11,0,0,0,0,5.9,5.55,5.55,0,0,0,2.1,2.12,5.72,5.72,0,0,0,2.94.78,6.2,6.2,0,0,0,2.48-.54,7.12,7.12,0,0,0,2.21-1.51l2,2.18a10,10,0,0,1-3.16,2.18,8.83,8.83,0,0,1-3.65.81,9,9,0,0,1-4.57-1.19A8.69,8.69,0,0,1,23.07,155a8.81,8.81,0,0,1-1.19-4.51,8.64,8.64,0,0,1,4.51-7.68,9.57,9.57,0,0,1,8.26-.42,8.73,8.73,0,0,1,3,2l-1.93,2.42A6.58,6.58,0,0,0,33.6,145.18Z"/>
      <path class="a" d="M46.61,141.85h3.31v7.38h8.62v-7.38h3.3v17.29h-3.3v-7H49.92v7H46.61Z"/>
      <path class="a" d="M84.83,142.79A8.67,8.67,0,0,1,88.15,146a9,9,0,0,1,0,9,8.93,8.93,0,0,1-3.32,3.22,9.8,9.8,0,0,1-9.36,0A8.88,8.88,0,0,1,72.14,155a9,9,0,0,1,0-9,8.63,8.63,0,0,1,3.33-3.18,10,10,0,0,1,9.36,0Zm-7.57,2.58a5.92,5.92,0,0,0-2.14,8.09,6,6,0,0,0,2.15,2.15,5.75,5.75,0,0,0,2.93.79,5.59,5.59,0,0,0,2.88-.79,5.91,5.91,0,0,0,2.9-5.14,5.81,5.81,0,0,0-2.9-5.1,5.59,5.59,0,0,0-2.88-.78A5.77,5.77,0,0,0,77.26,145.37Z"/>
      <path class="a" d="M98.45,141.85h3.31v14.3h7.46v3H98.45Z"/>
      <path class="a" d="M130.9,159.14l-1.53-3.66h-8.45l-1.53,3.66H116l7.58-17.29H127l7.48,17.29Zm-8.79-6.5h6.07l-3-7.26Z"/>
      <path class="a" d="M153.55,159.14l-3-5.11-.61,0H146v5.09h-3.31V141.85H150a7.81,7.81,0,0,1,5.18,1.55,5.47,5.47,0,0,1,1.83,4.4,6.47,6.47,0,0,1-.88,3.46,5.37,5.37,0,0,1-2.55,2.15l3.8,5.73Zm-7.51-8H150a4.41,4.41,0,0,0,2.86-.82,3,3,0,0,0,1-2.42,2.84,2.84,0,0,0-1-2.37,4.47,4.47,0,0,0-2.86-.79H146Z"/>
      <path class="a" d="M174.9,145a8.15,8.15,0,0,0-2.45-.45,3.42,3.42,0,0,0-1.88.45,1.38,1.38,0,0,0-.69,1.23,1.63,1.63,0,0,0,.48,1.2,3.79,3.79,0,0,0,1.21.79c.49.2,1.15.43,2,.68a21.15,21.15,0,0,1,2.87,1,5.18,5.18,0,0,1,1.92,1.54,4.17,4.17,0,0,1,.79,2.66,4.57,4.57,0,0,1-.85,2.76,5.34,5.34,0,0,1-2.35,1.79,8.88,8.88,0,0,1-3.42.62,10.79,10.79,0,0,1-4-.76,11,11,0,0,1-3.36-2l1.38-2.82a10.09,10.09,0,0,0,2.94,1.9,7.7,7.7,0,0,0,3,.7,3.78,3.78,0,0,0,2.17-.54,1.64,1.64,0,0,0,.79-1.44,1.66,1.66,0,0,0-.48-1.22,3.66,3.66,0,0,0-1.22-.78c-.49-.2-1.17-.42-2-.67a23.31,23.31,0,0,1-2.86-1,5,5,0,0,1-1.9-1.49,4.12,4.12,0,0,1-.79-2.63,4.36,4.36,0,0,1,.8-2.63,5.2,5.2,0,0,1,2.27-1.75,8.74,8.74,0,0,1,3.4-.61,11.41,11.41,0,0,1,3.32.49A11.57,11.57,0,0,1,179,143.4l-1.34,2.89A12.36,12.36,0,0,0,174.9,145Z"/>
    </g>
    <g>
      <path class="b" d="M89.61,18.5a6.66,6.66,0,0,0,6.66-6.66C96.27,8.16,89.61,0,89.61,0S83,8.16,83,11.84A6.66,6.66,0,0,0,89.61,18.5Z"/>
      <path class="b" d="M89.61,30.33A6.66,6.66,0,0,1,96.27,37c0,3.67-6.66,11.83-6.66,11.83S83,40.66,83,37A6.66,6.66,0,0,1,89.61,30.33Z"/>
      <path class="b" d="M85.24,24.45a6.66,6.66,0,0,0-6.66-6.66c-3.67,0-11.84,6.66-11.84,6.66s8.17,6.66,11.84,6.66A6.66,6.66,0,0,0,85.24,24.45Z"/>
      <path class="b" d="M94,24.45a6.66,6.66,0,0,1,6.66-6.66c3.67,0,11.84,6.66,11.84,6.66s-8.17,6.66-11.84,6.66A6.66,6.66,0,0,1,94,24.45Z"/>
      <path class="b" d="M78.28,13.28a6.66,6.66,0,0,0,0-9.42C75.68,1.26,65.2.2,65.2.2s1.06,10.48,3.66,13.08A6.66,6.66,0,0,0,78.28,13.28Z"/>
      <path class="b" d="M63.63,20.87a6.66,6.66,0,0,0,0-9.42C61,8.85,50.55,7.79,50.55,7.79s1.06,10.48,3.66,13.08A6.66,6.66,0,0,0,63.63,20.87Z"/>
      <path class="b" d="M63.63,28a6.66,6.66,0,0,1,0,9.42C61,40,50.55,41.09,50.55,41.09S51.61,30.61,54.21,28A6.66,6.66,0,0,1,63.63,28Z"/>
      <path class="b" d="M78.28,35.53a6.66,6.66,0,0,0-9.42,0c-2.6,2.6-3.66,13.08-3.66,13.08S75.68,47.55,78.28,45A6.66,6.66,0,0,0,78.28,35.53Z"/>
      <path class="b" d="M100.86,13.28a6.66,6.66,0,0,1,0-9.42C103.46,1.26,113.94.2,113.94.2s-1.06,10.48-3.66,13.08A6.66,6.66,0,0,1,100.86,13.28Z"/>
      <path class="b" d="M115.51,20.87a6.66,6.66,0,0,1,0-9.42c2.6-2.6,13.08-3.66,13.08-3.66s-1.06,10.48-3.66,13.08A6.66,6.66,0,0,1,115.51,20.87Z"/>
      <path class="b" d="M115.51,28a6.66,6.66,0,0,0,0,9.42c2.6,2.6,13.08,3.66,13.08,3.66S127.53,30.61,124.93,28A6.66,6.66,0,0,0,115.51,28Z"/>
      <path class="b" d="M100.86,35.53a6.66,6.66,0,0,1,9.42,0c2.6,2.6,3.66,13.08,3.66,13.08S103.46,47.55,100.86,45A6.66,6.66,0,0,1,100.86,35.53Z"/>
      <path class="a" d="M103,51.37l-5.91-2.61a39.13,39.13,0,0,0-7.42,12.59,39,39,0,0,0-7.45-12.61l-5.91,2.61A32.09,32.09,0,0,1,85.8,72.66a32,32,0,0,1-9.53,22l5.91,2.61a39,39,0,0,0,7.45-12.61,39.13,39.13,0,0,0,7.42,12.59L103,94.63a32,32,0,0,1-9.51-22A32.14,32.14,0,0,1,103,51.37Z"/>
    </g>
  </g>
</svg>
