<svg xmlns="http://www.w3.org/2000/svg" viewBox="0 0 386.75 20.03">
  <defs>
    <style>
      .a {
        fill: #54565a;
      }
    </style>
  </defs>
  <title>HealthScholars-Horizontal-NoTree-4C</title>
  <g>
    <path class="a" d="M0,.31H3.72v8.3h9.7V.31h3.72V19.75H13.42V11.86H3.72v7.89H0Z"/>
    <path class="a" d="M30.28.31H44.53V3.56H34v4.8h9.45v3.25H34V16.5H44.87v3.25H30.28Z"/>
    <path class="a" d="M71.37,19.75l-1.72-4.11h-9.5l-1.73,4.11H54.56L63.09.31H67l8.42,19.44Zm-9.89-7.3h6.83L64.92,4.28Z"/>
    <path class="a" d="M86.07.31h3.72V16.39h8.39v3.36H86.07Z"/>
    <path class="a" d="M107.26.31h15.87v3.3h-6.06V19.75h-3.75V3.61h-6.06Z"/>
    <path class="a" d="M134.1.31h3.72v8.3h9.7V.31h3.72V19.75h-3.72V11.86h-9.7v7.89H134.1Z"/>
    <path class="a" d="M186.43,3.89a9.3,9.3,0,0,0-2.76-.5,3.9,3.9,0,0,0-2.11.5,1.57,1.57,0,0,0-.78,1.39,1.83,1.83,0,0,0,.54,1.35,4.46,4.46,0,0,0,1.36.89,23.58,23.58,0,0,0,2.24.76,25.12,25.12,0,0,1,3.24,1.17,5.76,5.76,0,0,1,2.15,1.72,4.76,4.76,0,0,1,.89,3,5.12,5.12,0,0,1-1,3.1,6,6,0,0,1-2.64,2,10.05,10.05,0,0,1-3.85.7,12.16,12.16,0,0,1-4.44-.85,12.52,12.52,0,0,1-3.78-2.27l1.56-3.16a11.56,11.56,0,0,0,3.3,2.14,8.92,8.92,0,0,0,3.42.77,4.38,4.38,0,0,0,2.44-.59,2,2,0,0,0,.35-3,3.9,3.9,0,0,0-1.37-.88q-.84-.33-2.28-.75a27.5,27.5,0,0,1-3.23-1.14,5.57,5.57,0,0,1-2.13-1.68,4.6,4.6,0,0,1-.89-3,5,5,0,0,1,.9-3A5.78,5.78,0,0,1,180.15.7,9.73,9.73,0,0,1,184,0a12.92,12.92,0,0,1,3.73.56A12.56,12.56,0,0,1,191,2.06l-1.5,3.25A13.91,13.91,0,0,0,186.43,3.89Z"/>
    <path class="a" d="M214.71,4.06a6.46,6.46,0,0,0-2.84-.67,6.56,6.56,0,0,0-3.31.86,6.27,6.27,0,0,0-2.36,2.38,6.63,6.63,0,0,0-.86,3.32,6.65,6.65,0,0,0,.86,3.32,6.37,6.37,0,0,0,2.36,2.39,6.47,6.47,0,0,0,3.31.87,6.93,6.93,0,0,0,2.79-.61,8.11,8.11,0,0,0,2.49-1.7l2.19,2.45a11.42,11.42,0,0,1-3.55,2.46,10.27,10.27,0,0,1-9.26-.43,9.91,9.91,0,0,1-5-8.7,9.73,9.73,0,0,1,1.36-5,9.84,9.84,0,0,1,3.71-3.59,10.82,10.82,0,0,1,9.3-.47,9.81,9.81,0,0,1,3.41,2.31l-2.16,2.72A7.25,7.25,0,0,0,214.71,4.06Z"/>
    <path class="a" d="M230.73.31h3.72v8.3h9.7V.31h3.72V19.75h-3.72V11.86h-9.7v7.89h-3.72Z"/>
    <path class="a" d="M275.11,1.36A9.78,9.78,0,0,1,278.85,5,9.63,9.63,0,0,1,280.21,10a9.7,9.7,0,0,1-1.36,5.07,10,10,0,0,1-3.74,3.63,11.09,11.09,0,0,1-10.53,0,9.85,9.85,0,0,1-3.73-3.63A9.71,9.71,0,0,1,259.48,10a9.76,9.76,0,0,1,5.1-8.64,11.31,11.31,0,0,1,10.53,0Zm-8.51,2.9a6.6,6.6,0,0,0-2.42,2.39,6.53,6.53,0,0,0-.89,3.35,6.48,6.48,0,0,0,.9,3.36,6.68,6.68,0,0,0,2.42,2.42,6.42,6.42,0,0,0,3.29.89,6.28,6.28,0,0,0,3.25-.89,6.58,6.58,0,0,0,2.38-2.42A6.65,6.65,0,0,0,276.4,10a6.53,6.53,0,0,0-3.25-5.74,6.36,6.36,0,0,0-3.25-.87A6.54,6.54,0,0,0,266.6,4.26Z"/>
    <path class="a" d="M291.82.31h3.73V16.39h8.38v3.36H291.82Z"/>
    <path class="a" d="M329.71,19.75,328,15.64h-9.5l-1.72,4.11h-3.86L321.44.31h3.86l8.42,19.44Zm-9.89-7.3h6.84l-3.39-8.17Z"/>
    <path class="a" d="M356.58,19.75,353.22,14a5.81,5.81,0,0,1-.7,0h-4.39v5.72h-3.72V.31h8.11a8.74,8.74,0,0,1,5.84,1.75A6.12,6.12,0,0,1,360.41,7a7.37,7.37,0,0,1-1,3.89,6,6,0,0,1-2.88,2.42l4.28,6.44Zm-8.45-9h4.39a5,5,0,0,0,3.23-.91,3.35,3.35,0,0,0,1.11-2.73,3.2,3.2,0,0,0-1.11-2.66,5.05,5.05,0,0,0-3.23-.89h-4.39Z"/>
    <path class="a" d="M382,3.89a9.41,9.41,0,0,0-2.77-.5,3.9,3.9,0,0,0-2.11.5,1.57,1.57,0,0,0-.78,1.39,1.83,1.83,0,0,0,.54,1.35,4.46,4.46,0,0,0,1.36.89,23.58,23.58,0,0,0,2.24.76,24.58,24.58,0,0,1,3.24,1.17,5.76,5.76,0,0,1,2.15,1.72,4.76,4.76,0,0,1,.89,3,5.12,5.12,0,0,1-1,3.1,6,6,0,0,1-2.64,2,10.05,10.05,0,0,1-3.85.7,12.2,12.2,0,0,1-4.44-.85,12.64,12.64,0,0,1-3.78-2.27l1.56-3.16a11.56,11.56,0,0,0,3.3,2.14,9,9,0,0,0,3.42.77A4.38,4.38,0,0,0,381.8,16a2,2,0,0,0,.35-3,3.9,3.9,0,0,0-1.37-.88q-.84-.33-2.28-.75a26.63,26.63,0,0,1-3.22-1.14,5.53,5.53,0,0,1-2.14-1.68,4.6,4.6,0,0,1-.89-3,5,5,0,0,1,.9-3A5.75,5.75,0,0,1,375.71.7a9.64,9.64,0,0,1,3.82-.7,13.37,13.37,0,0,1,7,2.06l-1.51,3.25A13.84,13.84,0,0,0,382,3.89Z"/>
  </g>
</svg>
