<svg xmlns="http://www.w3.org/2000/svg" viewBox="0 0 271.61 103.88">
  <defs>
    <style>
      .a {
        fill: #54565a;
      }

      .b {
        fill: #70d44b;
      }
    </style>
  </defs>
  <title>HealthScholars-Horizontal-4C</title>
  <g>
    <g>
      <path class="a" d="M78.86,54.69h3.59v8H91.8v-8h3.6V73.46H91.8V65.84H82.45v7.62H78.86Z"/>
      <path class="a" d="M106.74,54.69h13.75v3.14H110.33v4.64h9.11V65.6h-9.11v4.72h10.48v3.14H106.74Z"/>
      <path class="a" d="M145.05,73.46l-1.67-4h-9.16l-1.67,4h-3.72l8.23-18.77h3.72l8.13,18.77Zm-9.55-7h6.6l-3.27-7.89Z"/>
      <path class="a" d="M157.89,54.69h3.59V70.21h8.1v3.25H157.89Z"/>
      <path class="a" d="M177,54.69h15.31v3.19h-5.85V73.46h-3.61V57.88H177Z"/>
      <path class="a" d="M201.56,54.69h3.59v8h9.36v-8h3.59V73.46h-3.59V65.84h-9.36v7.62h-3.59Z"/>
      <path class="a" d="M87.69,88.31A9,9,0,0,0,85,87.83a3.78,3.78,0,0,0-2,.48,1.51,1.51,0,0,0-.75,1.34,1.76,1.76,0,0,0,.53,1.3,4.14,4.14,0,0,0,1.31.86,20.39,20.39,0,0,0,2.16.73,23.24,23.24,0,0,1,3.12,1.13,5.48,5.48,0,0,1,2.08,1.66,4.59,4.59,0,0,1,.86,2.9,4.94,4.94,0,0,1-.93,3,5.75,5.75,0,0,1-2.54,1.94,9.64,9.64,0,0,1-3.72.67,11.63,11.63,0,0,1-4.29-.82,12,12,0,0,1-3.64-2.18l1.5-3.06a11.15,11.15,0,0,0,3.19,2.07,8.5,8.5,0,0,0,3.3.75,4.24,4.24,0,0,0,2.36-.58,1.91,1.91,0,0,0,.33-2.9,3.93,3.93,0,0,0-1.33-.84c-.53-.21-1.27-.46-2.19-.72a28,28,0,0,1-3.11-1.1,5.35,5.35,0,0,1-2.07-1.63A4.46,4.46,0,0,1,78.29,90a4.77,4.77,0,0,1,.87-2.85,5.59,5.59,0,0,1,2.47-1.89,9.38,9.38,0,0,1,3.69-.68,12.37,12.37,0,0,1,3.6.54,12.19,12.19,0,0,1,3.18,1.45l-1.45,3.13A13.8,13.8,0,0,0,87.69,88.31Z"/>
      <path class="a" d="M113.64,88.47a6.32,6.32,0,0,0-2.75-.64,6.25,6.25,0,0,0-3.19.83A6,6,0,0,0,105.42,91a6.39,6.39,0,0,0-.83,3.2,6.45,6.45,0,0,0,.83,3.21,6.21,6.21,0,0,0,5.47,3.14,6.77,6.77,0,0,0,2.7-.58,7.88,7.88,0,0,0,2.4-1.64l2.11,2.36a11,11,0,0,1-3.43,2.37,9.64,9.64,0,0,1-4,.87,9.93,9.93,0,0,1-5-1.28,9.41,9.41,0,0,1-3.53-3.5,9.56,9.56,0,0,1-1.29-4.89,9.4,9.4,0,0,1,4.89-8.34,10.42,10.42,0,0,1,9-.46,9.67,9.67,0,0,1,3.3,2.23L116,90.27A7.2,7.2,0,0,0,113.64,88.47Z"/>
      <path class="a" d="M127.75,84.85h3.6v8h9.35v-8h3.6v18.77h-3.6V96h-9.35v7.62h-3.6Z"/>
      <path class="a" d="M169.24,85.87a9.61,9.61,0,0,1,3.61,13.23,9.63,9.63,0,0,1-3.61,3.5,10.72,10.72,0,0,1-10.16,0,9.63,9.63,0,0,1-3.61-3.5,9.48,9.48,0,0,1-1.31-4.89,9.35,9.35,0,0,1,4.92-8.34,10.87,10.87,0,0,1,10.16,0ZM161,88.67a6.43,6.43,0,0,0-2.32,8.78A6.53,6.53,0,0,0,161,99.78a6.16,6.16,0,0,0,3.17.86,6.05,6.05,0,0,0,3.14-.86,6.24,6.24,0,0,0,2.29-2.33,6.45,6.45,0,0,0,.85-3.24,6.36,6.36,0,0,0-.85-3.23,6.23,6.23,0,0,0-5.43-3.15A6.37,6.37,0,0,0,161,88.67Z"/>
      <path class="a" d="M184,84.85h3.6v15.52h8.09v3.25H184Z"/>
      <path class="a" d="M219.25,103.62l-1.66-4h-9.17l-1.66,4H203l8.23-18.77H215l8.12,18.77Zm-9.54-7.06h6.59L213,88.68Z"/>
      <path class="a" d="M243.83,103.62l-3.24-5.55-.67,0h-4.24v5.53h-3.59V84.85h7.83a8.41,8.41,0,0,1,5.63,1.69,5.94,5.94,0,0,1,2,4.77,7,7,0,0,1-.95,3.75,5.82,5.82,0,0,1-2.77,2.34l4.13,6.22Zm-8.15-8.69h4.24A4.78,4.78,0,0,0,243,94a3.21,3.21,0,0,0,1.07-2.62A3.13,3.13,0,0,0,243,88.84a4.9,4.9,0,0,0-3.11-.85h-4.24Z"/>
      <path class="a" d="M267,88.31a9,9,0,0,0-2.67-.48,3.75,3.75,0,0,0-2,.48,1.51,1.51,0,0,0-.75,1.34,1.76,1.76,0,0,0,.53,1.3,4,4,0,0,0,1.31.86,20.39,20.39,0,0,0,2.16.73,23.24,23.24,0,0,1,3.12,1.13,5.56,5.56,0,0,1,2.08,1.66,4.59,4.59,0,0,1,.86,2.9,4.94,4.94,0,0,1-.93,3,5.73,5.73,0,0,1-2.55,1.94,9.55,9.55,0,0,1-3.71.67,11.63,11.63,0,0,1-4.29-.82,12,12,0,0,1-3.64-2.18l1.5-3.06a11,11,0,0,0,3.19,2.07,8.5,8.5,0,0,0,3.3.75,4.19,4.19,0,0,0,2.35-.58,1.9,1.9,0,0,0,.34-2.9,3.93,3.93,0,0,0-1.33-.84,22.86,22.86,0,0,0-2.2-.72,27.71,27.71,0,0,1-3.1-1.1,5.35,5.35,0,0,1-2.07-1.63,4.46,4.46,0,0,1-.86-2.85,4.77,4.77,0,0,1,.87-2.85A5.54,5.54,0,0,1,261,85.23a9.38,9.38,0,0,1,3.69-.68,12.37,12.37,0,0,1,3.6.54,12.19,12.19,0,0,1,3.18,1.45L270,89.67A13.8,13.8,0,0,0,267,88.31Z"/>
    </g>
    <g>
      <path class="b" d="M41.55,19.68a7.08,7.08,0,0,0,7.08-7.09C48.63,8.68,41.55,0,41.55,0s-7.09,8.68-7.09,12.59A7.09,7.09,0,0,0,41.55,19.68Z"/>
      <path class="b" d="M41.55,32.26a7.08,7.08,0,0,1,7.08,7.08c0,3.92-7.08,12.6-7.08,12.6s-7.09-8.68-7.09-12.6A7.09,7.09,0,0,1,41.55,32.26Z"/>
      <path class="b" d="M36.9,26a7.08,7.08,0,0,0-7.08-7.08C25.91,18.93,17.23,26,17.23,26s8.68,7.09,12.59,7.09A7.08,7.08,0,0,0,36.9,26Z"/>
      <path class="b" d="M46.19,26a7.09,7.09,0,0,1,7.09-7.08c3.91,0,12.59,7.08,12.59,7.08S57.19,33.1,53.28,33.1A7.09,7.09,0,0,1,46.19,26Z"/>
      <path class="b" d="M29.5,14.12a7.07,7.07,0,0,0,0-10C26.73,1.34,15.58.21,15.58.21s1.13,11.15,3.9,13.91A7.08,7.08,0,0,0,29.5,14.12Z"/>
      <path class="b" d="M13.91,22.2a7.08,7.08,0,0,0,0-10C11.15,9.42,0,8.29,0,8.29S1.13,19.44,3.9,22.2A7.07,7.07,0,0,0,13.91,22.2Z"/>
      <path class="b" d="M13.91,29.8a7.08,7.08,0,0,1,0,10C11.15,42.58,0,43.71,0,43.71S1.13,32.57,3.9,29.8A7.07,7.07,0,0,1,13.91,29.8Z"/>
      <path class="b" d="M29.5,37.8a7.08,7.08,0,0,0-10,0c-2.77,2.76-3.9,13.91-3.9,13.91s11.15-1.13,13.92-3.9A7.07,7.07,0,0,0,29.5,37.8Z"/>
      <path class="b" d="M53.51,14.12a7.09,7.09,0,0,1,0-10C56.28,1.34,67.43.21,67.43.21s-1.13,11.15-3.9,13.91A7.08,7.08,0,0,1,53.51,14.12Z"/>
      <path class="b" d="M69.1,22.2a7.08,7.08,0,0,1,0-10C71.87,9.42,83,8.29,83,8.29S81.88,19.44,79.12,22.2A7.08,7.08,0,0,1,69.1,22.2Z"/>
      <path class="b" d="M69.1,29.8a7.08,7.08,0,0,0,0,10C71.87,42.58,83,43.71,83,43.71S81.88,32.57,79.12,29.8A7.08,7.08,0,0,0,69.1,29.8Z"/>
      <path class="b" d="M53.51,37.8a7.08,7.08,0,0,1,10,0c2.77,2.76,3.9,13.91,3.9,13.91s-11.15-1.13-13.92-3.9A7.09,7.09,0,0,1,53.51,37.8Z"/>
      <path class="a" d="M55.75,54.65l-6.29-2.78a41.54,41.54,0,0,0-7.89,13.39,41.43,41.43,0,0,0-7.92-13.41l-6.29,2.77A34.21,34.21,0,0,1,37.5,77.29a34,34,0,0,1-10.14,23.39l6.29,2.78a41.53,41.53,0,0,0,7.92-13.41,41.54,41.54,0,0,0,7.89,13.39l6.29-2.78A34,34,0,0,1,45.64,77.29,34.1,34.1,0,0,1,55.75,54.65Z"/>
    </g>
  </g>
</svg>
