<svg xmlns="http://www.w3.org/2000/svg" viewBox="0 0 407.48 93.49">
  <defs>
    <style>
      .a {
        fill: #fff;
      }

      .b {
        fill: #70d44b;
      }
    </style>
  </defs>
  <title>HealthScholars-Primary-white-green</title>
  <g>
    <g>
      <path class="a" d="M0,59.23H3.62V67.3H13V59.23h3.62v18.9H13V70.46H3.62v7.67H0Z"/>
      <path class="a" d="M29.43,59.23H43.28v3.16H33.05v4.67h9.18v3.16H33.05V75H43.6v3.16H29.43Z"/>
      <path class="a" d="M69.36,78.13l-1.67-4H58.45l-1.67,4H53l8.29-18.9h3.75l8.18,18.9ZM59.75,71h6.64L63.1,63.09Z"/>
      <path class="a" d="M83.65,59.23h3.61V74.86h8.16v3.27H83.65Z"/>
      <path class="a" d="M104.25,59.23h15.41v3.21h-5.88V78.13h-3.65V62.44h-5.88Z"/>
      <path class="a" d="M130.33,59.23H134V67.3h9.42V59.23H147v18.9h-3.62V70.46H134v7.67h-3.62Z"/>
      <path class="a" d="M212.8,62.71a9.11,9.11,0,0,0-2.69-.48,3.79,3.79,0,0,0-2.05.48,1.55,1.55,0,0,0-.76,1.35,1.79,1.79,0,0,0,.53,1.31,4.21,4.21,0,0,0,1.32.87c.54.22,1.26.47,2.18.74a25.15,25.15,0,0,1,3.14,1.13,5.67,5.67,0,0,1,2.1,1.68,4.64,4.64,0,0,1,.86,2.91,5,5,0,0,1-.93,3,5.81,5.81,0,0,1-2.57,2,9.71,9.71,0,0,1-3.74.68,11.8,11.8,0,0,1-4.32-.83,12.36,12.36,0,0,1-3.67-2.2l1.51-3.08a10.91,10.91,0,0,0,3.22,2.08,8.44,8.44,0,0,0,3.32.76,4.15,4.15,0,0,0,2.37-.58,1.91,1.91,0,0,0,.34-2.92,3.9,3.9,0,0,0-1.34-.85c-.54-.21-1.27-.46-2.21-.73a24.83,24.83,0,0,1-3.13-1.1,5.48,5.48,0,0,1-2.08-1.64,4.48,4.48,0,0,1-.86-2.87,4.86,4.86,0,0,1,.87-2.88,5.69,5.69,0,0,1,2.49-1.9,9.52,9.52,0,0,1,3.71-.68,12.57,12.57,0,0,1,3.63.54,12.35,12.35,0,0,1,3.2,1.46l-1.46,3.16A14,14,0,0,0,212.8,62.71Z"/>
      <path class="a" d="M240.29,62.88a6.31,6.31,0,0,0-2.77-.65,6.46,6.46,0,0,0-3.22.83A6.12,6.12,0,0,0,232,65.37a6.61,6.61,0,0,0,0,6.45,6.17,6.17,0,0,0,2.29,2.33,6.28,6.28,0,0,0,3.22.85,6.83,6.83,0,0,0,2.71-.59,7.88,7.88,0,0,0,2.42-1.65l2.13,2.37a11.06,11.06,0,0,1-3.45,2.39,9.7,9.7,0,0,1-4,.88,9.87,9.87,0,0,1-5-1.3,9.4,9.4,0,0,1-3.56-3.52,9.66,9.66,0,0,1-1.3-4.93,9.5,9.5,0,0,1,4.93-8.39,10.45,10.45,0,0,1,9-.46A9.55,9.55,0,0,1,244.75,62l-2.1,2.64A7.24,7.24,0,0,0,240.29,62.88Z"/>
      <path class="a" d="M255.85,59.23h3.62V67.3h9.42V59.23h3.62v18.9h-3.62V70.46h-9.42v7.67h-3.62Z"/>
      <path class="a" d="M299,60.26a9.65,9.65,0,0,1,3.63,13.32A9.52,9.52,0,0,1,299,77.1a10.71,10.71,0,0,1-10.23,0,9.57,9.57,0,0,1-5-8.45,9.45,9.45,0,0,1,5-8.39,10.94,10.94,0,0,1,10.23,0Zm-8.27,2.82a6.46,6.46,0,0,0-2.34,8.84,6.61,6.61,0,0,0,2.35,2.35,6.27,6.27,0,0,0,3.2.86,6.15,6.15,0,0,0,3.16-.86,6.43,6.43,0,0,0,2.31-2.35,6.53,6.53,0,0,0,.85-3.27,6.46,6.46,0,0,0-.85-3.25,6.35,6.35,0,0,0-2.31-2.32,6.14,6.14,0,0,0-3.16-.85A6.32,6.32,0,0,0,290.71,63.08Z"/>
      <path class="a" d="M315.22,59.23h3.62V74.86H327v3.27H315.22Z"/>
      <path class="a" d="M352.05,78.13l-1.67-4h-9.24l-1.67,4h-3.76L344,59.23h3.76l8.18,18.9ZM342.44,71h6.64l-3.29-7.94Z"/>
      <path class="a" d="M378.16,78.13l-3.27-5.59a5.36,5.36,0,0,1-.67,0H370v5.56h-3.62V59.23h7.89a8.55,8.55,0,0,1,5.67,1.7,6,6,0,0,1,2,4.81,7.12,7.12,0,0,1-.95,3.78,5.93,5.93,0,0,1-2.8,2.35l4.16,6.26ZM370,69.38h4.27a4.84,4.84,0,0,0,3.13-.89,3.22,3.22,0,0,0,1.08-2.65,3.12,3.12,0,0,0-1.08-2.59,5,5,0,0,0-3.13-.86H370Z"/>
      <path class="a" d="M402.85,62.71a9.11,9.11,0,0,0-2.69-.48,3.82,3.82,0,0,0-2.05.48,1.54,1.54,0,0,0-.75,1.35,1.78,1.78,0,0,0,.52,1.31,4.15,4.15,0,0,0,1.33.87,22,22,0,0,0,2.17.74,24.57,24.57,0,0,1,3.14,1.13,5.67,5.67,0,0,1,2.1,1.68,4.64,4.64,0,0,1,.86,2.91,5,5,0,0,1-.93,3,5.81,5.81,0,0,1-2.57,2,9.66,9.66,0,0,1-3.73.68,11.81,11.81,0,0,1-4.33-.83,12.36,12.36,0,0,1-3.67-2.2l1.51-3.08A10.91,10.91,0,0,0,397,74.32a8.44,8.44,0,0,0,3.32.76,4.15,4.15,0,0,0,2.37-.58,1.91,1.91,0,0,0,.34-2.92,4,4,0,0,0-1.33-.85c-.54-.21-1.28-.46-2.22-.73a24.83,24.83,0,0,1-3.13-1.1,5.48,5.48,0,0,1-2.08-1.64,4.48,4.48,0,0,1-.86-2.87,4.86,4.86,0,0,1,.87-2.88,5.69,5.69,0,0,1,2.49-1.9,9.52,9.52,0,0,1,3.71-.68,12.52,12.52,0,0,1,3.63.54,12.2,12.2,0,0,1,3.2,1.46l-1.46,3.16A14,14,0,0,0,402.85,62.71Z"/>
    </g>
    <g>
      <path class="b" d="M175.59,17.78a6.4,6.4,0,0,0,6.4-6.4C182,7.84,175.59,0,175.59,0s-6.4,7.84-6.4,11.38A6.39,6.39,0,0,0,175.59,17.78Z"/>
      <path class="b" d="M175.59,29.15a6.41,6.41,0,0,1,6.4,6.4c0,3.54-6.4,11.38-6.4,11.38s-6.4-7.84-6.4-11.38A6.4,6.4,0,0,1,175.59,29.15Z"/>
      <path class="b" d="M171.39,23.51A6.41,6.41,0,0,0,165,17.1c-3.54,0-11.38,6.41-11.38,6.41s7.84,6.4,11.38,6.4A6.41,6.41,0,0,0,171.39,23.51Z"/>
      <path class="b" d="M179.78,23.51a6.41,6.41,0,0,1,6.41-6.41c3.53,0,11.37,6.41,11.37,6.41s-7.84,6.4-11.37,6.4A6.41,6.41,0,0,1,179.78,23.51Z"/>
      <path class="b" d="M164.7,12.76a6.4,6.4,0,0,0,0-9C162.2,1.21,152.13.19,152.13.19s1,10.07,3.52,12.57A6.4,6.4,0,0,0,164.7,12.76Z"/>
      <path class="b" d="M150.62,20.06a6.4,6.4,0,0,0,0-9C148.12,8.51,138,7.49,138,7.49s1,10.07,3.52,12.57A6.41,6.41,0,0,0,150.62,20.06Z"/>
      <path class="b" d="M150.62,26.93a6.4,6.4,0,0,1,0,9C148.12,38.48,138,39.5,138,39.5s1-10.07,3.52-12.57A6.41,6.41,0,0,1,150.62,26.93Z"/>
      <path class="b" d="M164.7,34.15a6.4,6.4,0,0,0-9,0c-2.5,2.5-3.52,12.58-3.52,12.58s10.07-1,12.57-3.52A6.41,6.41,0,0,0,164.7,34.15Z"/>
      <path class="b" d="M186.4,12.76a6.4,6.4,0,0,1,0-9C188.9,1.21,199,.19,199,.19s-1,10.07-3.52,12.57A6.4,6.4,0,0,1,186.4,12.76Z"/>
      <path class="b" d="M200.48,20.06a6.4,6.4,0,0,1,0-9c2.5-2.5,12.57-3.52,12.57-3.52s-1,10.07-3.52,12.57A6.4,6.4,0,0,1,200.48,20.06Z"/>
      <path class="b" d="M200.48,26.93a6.4,6.4,0,0,0,0,9c2.5,2.5,12.57,3.52,12.57,3.52s-1-10.07-3.52-12.57A6.4,6.4,0,0,0,200.48,26.93Z"/>
      <path class="b" d="M186.4,34.15a6.4,6.4,0,0,1,9,0C198,36.65,199,46.73,199,46.73s-10.07-1-12.57-3.52A6.41,6.41,0,0,1,186.4,34.15Z"/>
      <path class="a" d="M188.42,49.38l-5.68-2.51A37.43,37.43,0,0,0,175.6,59a37.55,37.55,0,0,0-7.15-12.12l-5.69,2.51a30.86,30.86,0,0,1,9.17,20.48A30.77,30.77,0,0,1,162.76,91l5.69,2.51a37.66,37.66,0,0,0,7.15-12.12,37.49,37.49,0,0,0,7.14,12.09l5.68-2.5a30.73,30.73,0,0,1-9.14-21.12A30.83,30.83,0,0,1,188.42,49.38Z"/>
    </g>
  </g>
</svg>
