<svg xmlns="http://www.w3.org/2000/svg" viewBox="0 0 196.09 253.53">
  <defs>
    <style>
      .a {
        fill: #007078;
      }

      .b {
        fill: #70d44b;
      }
    </style>
  </defs>
  <title>HealthScholars-Flag-DarkTeal</title>
  <g>
    <polygon class="a" points="196.09 213.32 96.61 253.53 0 213.32 0 0 96.61 0 196.09 0 196.09 213.32"/>
    <g>
      <path class="b" d="M98.22,76.44A9.74,9.74,0,0,0,108,66.7c0-5.39-9.74-17.33-9.74-17.33S88.47,61.31,88.47,66.7A9.75,9.75,0,0,0,98.22,76.44Z"/>
      <path class="b" d="M98.22,93.75A9.74,9.74,0,0,1,108,103.5c0,5.38-9.74,17.32-9.74,17.32s-9.75-11.94-9.75-17.32A9.75,9.75,0,0,1,98.22,93.75Z"/>
      <path class="b" d="M91.83,85.16a9.76,9.76,0,0,0-9.75-9.75c-5.38,0-17.32,9.75-17.32,9.75S76.7,94.9,82.08,94.9A9.75,9.75,0,0,0,91.83,85.16Z"/>
      <path class="b" d="M104.61,85.16a9.75,9.75,0,0,1,9.75-9.75c5.38,0,17.32,9.75,17.32,9.75s-11.94,9.74-17.32,9.74A9.74,9.74,0,0,1,104.61,85.16Z"/>
      <path class="b" d="M81.64,68.8a9.74,9.74,0,0,0,0-13.78c-3.8-3.81-19.14-5.36-19.14-5.36S64.05,65,67.86,68.8A9.74,9.74,0,0,0,81.64,68.8Z"/>
      <path class="b" d="M60.2,79.91a9.74,9.74,0,0,0,0-13.78c-3.81-3.8-19.14-5.36-19.14-5.36s1.55,15.34,5.36,19.14A9.74,9.74,0,0,0,60.2,79.91Z"/>
      <path class="b" d="M60.2,90.37a9.74,9.74,0,0,1,0,13.78c-3.81,3.81-19.14,5.36-19.14,5.36s1.55-15.34,5.36-19.14A9.74,9.74,0,0,1,60.2,90.37Z"/>
      <path class="b" d="M81.64,101.37a9.74,9.74,0,0,0-13.78,0c-3.81,3.8-5.36,19.14-5.36,19.14s15.34-1.55,19.14-5.36A9.74,9.74,0,0,0,81.64,101.37Z"/>
      <path class="b" d="M114.68,68.8a9.74,9.74,0,0,1,0-13.78c3.81-3.81,19.14-5.36,19.14-5.36S132.27,65,128.46,68.8A9.74,9.74,0,0,1,114.68,68.8Z"/>
      <path class="b" d="M136.12,79.91a9.74,9.74,0,0,1,0-13.78c3.81-3.8,19.14-5.36,19.14-5.36s-1.55,15.34-5.36,19.14A9.74,9.74,0,0,1,136.12,79.91Z"/>
      <path class="b" d="M136.12,90.37a9.74,9.74,0,0,0,0,13.78c3.81,3.81,19.14,5.36,19.14,5.36s-1.55-15.34-5.36-19.14A9.74,9.74,0,0,0,136.12,90.37Z"/>
      <path class="b" d="M114.68,101.37a9.74,9.74,0,0,1,13.78,0c3.81,3.8,5.36,19.14,5.36,19.14s-15.33-1.55-19.14-5.36A9.74,9.74,0,0,1,114.68,101.37Z"/>
      <path class="b" d="M117.76,124.55l-8.65-3.82a57.22,57.22,0,0,0-10.87,18.42A57.12,57.12,0,0,0,87.35,120.7l-8.66,3.82a46.88,46.88,0,0,1,14,31.19,46.73,46.73,0,0,1-14,32.17l8.66,3.82a57.19,57.19,0,0,0,10.89-18.44,57.17,57.17,0,0,0,10.87,18.41l8.65-3.82a46.78,46.78,0,0,1-13.92-32.15A47,47,0,0,1,117.76,124.55Z"/>
    </g>
  </g>
</svg>
