<svg xmlns="http://www.w3.org/2000/svg" width="197" height="254" viewBox="0 0 197 254">
  <g fill="none" fill-rule="evenodd">
    <polyline fill="#8CC8A0" points="196.09 213.794 96.61 254 0 213.794 0 .473 196.09 .473 196.09 213.794"/>
    <path fill="#00696B" d="M117.762,125.024 L109.108,121.207 C104.241,126.749 100.617,133.006 98.242,139.62 C95.862,132.994 92.229,126.724 87.348,121.174 L78.693,124.993 C87.548,133.944 92.185,145.006 92.644,156.179 C92.438,167.687 87.811,179.139 78.693,188.357 L87.348,192.176 C92.229,186.626 95.862,180.356 98.242,173.731 C100.617,180.343 104.241,186.601 109.108,192.144 L117.762,188.326 C108.662,179.112 104.047,167.669 103.842,156.17 C104.304,145.014 108.93,133.967 117.762,125.024"/>
    <g fill="#00696B" transform="translate(41 49)">
      <path d="M57.218 27.915C62.6 27.915 66.965 23.551 66.965 18.169 66.965 12.787 57.218.842 57.218.842 57.218.842 47.473 12.787 47.473 18.169 47.473 23.551 51.836 27.915 57.218 27.915M57.218 45.223C62.6 45.223 66.965 49.586 66.965 54.969 66.965 60.351 57.218 72.294 57.218 72.294 57.218 72.294 47.473 60.351 47.473 54.969 47.473 49.586 51.836 45.223 57.218 45.223M50.827 36.63C50.827 31.249 46.464 26.884 41.081 26.884 35.699 26.884 23.755 36.63 23.755 36.63 23.755 36.63 35.699 46.377 41.081 46.377 46.464 46.377 50.827 42.012 50.827 36.63M63.609 36.63C63.609 31.249 67.972 26.884 73.355 26.884 78.737 26.884 90.681 36.63 90.681 36.63 90.681 36.63 78.737 46.377 73.355 46.377 67.972 46.377 63.609 42.012 63.609 36.63M40.641 20.274C44.448 16.468 44.448 10.297 40.641 6.491 36.836 2.685 21.499 1.131 21.499 1.131 21.499 1.131 23.053 16.467 26.859 20.273 30.665 24.08 36.836 24.08 40.641 20.274M19.201 31.387C23.006 27.582 23.007 21.411 19.201 17.604 15.395 13.798.057 12.245.057 12.245.057 12.245 1.612 27.582 5.418 31.387 9.224 35.193 15.395 35.193 19.201 31.387M19.201 41.839C23.006 45.646 23.007 51.817 19.201 55.624 15.395 59.428.057 60.983.057 60.983.057 60.983 1.612 45.646 5.418 41.84 9.224 38.034 15.395 38.034 19.201 41.839M40.641 52.84C36.836 49.035 30.664 49.034 26.858 52.84 23.053 56.646 21.499 71.983 21.499 71.983 21.499 71.983 36.835 70.428 40.641 66.624 44.448 62.817 44.447 56.646 40.641 52.84M73.68 20.274C69.874 16.468 69.874 10.297 73.68 6.491 77.485 2.685 92.823 1.131 92.823 1.131 92.823 1.131 91.268 16.467 87.463 20.273 83.656 24.08 77.486 24.08 73.68 20.274M95.121 31.387C91.315 27.582 91.314 21.411 95.121 17.604 98.927 13.798 114.263 12.245 114.263 12.245 114.263 12.245 112.71 27.582 108.904 31.387 105.097 35.193 98.927 35.193 95.121 31.387M95.121 41.839C91.315 45.646 91.314 51.817 95.121 55.624 98.927 59.428 114.263 60.983 114.263 60.983 114.263 60.983 112.71 45.646 108.904 41.84 105.097 38.034 98.927 38.034 95.121 41.839M73.68 52.84C77.486 49.035 83.657 49.034 87.464 52.84 91.269 56.646 92.823 71.983 92.823 71.983 92.823 71.983 77.486 70.428 73.68 66.624 69.874 62.817 69.875 56.646 73.68 52.84"/>
    </g>
  </g>
</svg>
