<svg xmlns="http://www.w3.org/2000/svg" viewBox="0 0 196.09 253.53">
  <defs>
    <style>
      .a {
        fill: #403c3d;
      }

      .b {
        fill: #89d15f;
      }

      .c {
        fill: #fff;
      }
    </style>
  </defs>
  <title>healthscholars-logo-flag-dark</title>
  <g>
    <polygon class="a" points="196.09 213.32 96.61 253.53 0 213.32 0 0 96.61 0 196.09 0 196.09 213.32"/>
    <g>
      <path class="b" d="M98.22,76.44a9.74,9.74,0,0,0,9.78-9.7v0c0-5.39-9.74-17.33-9.74-17.33S88.47,61.31,88.47,66.7A9.75,9.75,0,0,0,98.22,76.44Z"/>
      <path class="b" d="M98.22,93.75a9.74,9.74,0,0,1,9.78,9.7v0c0,5.38-9.74,17.32-9.74,17.32s-9.75-11.94-9.75-17.32A9.75,9.75,0,0,1,98.22,93.75Z"/>
      <path class="b" d="M91.83,85.16a9.77,9.77,0,0,0-9.75-9.75c-5.38,0-17.32,9.75-17.32,9.75S76.7,94.9,82.08,94.9A9.75,9.75,0,0,0,91.83,85.16Z"/>
      <path class="b" d="M104.61,85.16a9.76,9.76,0,0,1,9.75-9.75c5.38,0,17.32,9.75,17.32,9.75s-11.94,9.74-17.32,9.74a9.74,9.74,0,0,1-9.75-9.73Z"/>
      <path class="b" d="M81.64,68.8a9.73,9.73,0,0,0,0-13.77h0c-3.8-3.81-19.14-5.36-19.14-5.36S64.05,65,67.86,68.8a9.73,9.73,0,0,0,13.77,0Z"/>
      <path class="b" d="M60.2,79.91a9.73,9.73,0,0,0,0-13.77h0c-3.81-3.8-19.14-5.36-19.14-5.36s1.55,15.34,5.36,19.14a9.73,9.73,0,0,0,13.77,0Z"/>
      <path class="b" d="M60.2,90.37a9.73,9.73,0,0,1,0,13.77h0c-3.81,3.81-19.14,5.36-19.14,5.36s1.55-15.34,5.36-19.14a9.73,9.73,0,0,1,13.77,0Z"/>
      <path class="b" d="M81.64,101.37a9.73,9.73,0,0,0-13.77,0h0c-3.81,3.8-5.36,19.14-5.36,19.14s15.34-1.55,19.14-5.36a9.73,9.73,0,0,0,0-13.77Z"/>
      <path class="b" d="M114.68,68.8a9.73,9.73,0,0,1,0-13.77h0c3.81-3.81,19.14-5.36,19.14-5.36S132.27,65,128.46,68.8a9.73,9.73,0,0,1-13.77,0Z"/>
      <path class="b" d="M136.12,79.91a9.73,9.73,0,0,1,0-13.77h0c3.81-3.8,19.14-5.36,19.14-5.36s-1.55,15.34-5.36,19.14a9.73,9.73,0,0,1-13.77,0Z"/>
      <path class="b" d="M136.12,90.37a9.73,9.73,0,0,0,0,13.77h0c3.81,3.81,19.14,5.36,19.14,5.36s-1.55-15.34-5.36-19.14a9.73,9.73,0,0,0-13.77,0Z"/>
      <path class="b" d="M114.68,101.37a9.73,9.73,0,0,1,13.77,0h0c3.81,3.8,5.36,19.14,5.36,19.14s-15.33-1.55-19.14-5.36a9.62,9.62,0,0,1-.31-13.67A.3.3,0,0,1,114.68,101.37Z"/>
      <path class="c" d="M117.76,124.55l-8.65-3.82a57.1,57.1,0,0,0-10.87,18.42A57.11,57.11,0,0,0,87.35,120.7l-8.66,3.82a46.83,46.83,0,0,1,14,31.19,46.73,46.73,0,0,1-14,32.17l8.66,3.82a57.25,57.25,0,0,0,10.89-18.44,57.05,57.05,0,0,0,10.87,18.41l8.65-3.82a46.77,46.77,0,0,1-13.92-32.15A47,47,0,0,1,117.76,124.55Z"/>
    </g>
  </g>
</svg>
