<svg xmlns="http://www.w3.org/2000/svg" viewBox="0 0 32.47 47.91"><title>HealthScholars-icon-light</title><path d="M29.24,9.9A5.13,5.13,0,1,1,32.1,3.23,5.14,5.14,0,0,1,29.24,9.9ZM20,5.05a4.62,4.62,0,1,0-2.57,6A4.62,4.62,0,0,0,20,5.05Zm-9.13,7.31A4.11,4.11,0,1,0,8.57,17.7,4.11,4.11,0,0,0,10.86,12.36ZM6.93,22.23a3.59,3.59,0,1,0-2,4.68A3.59,3.59,0,0,0,6.93,22.23Zm.72,9.92a3.08,3.08,0,1,0-1.71,4A3.07,3.07,0,0,0,7.65,32.15ZM17.2,43.79a2.05,2.05,0,1,0-1.14,2.67A2.06,2.06,0,0,0,17.2,43.79Zm5.84,2a1.54,1.54,0,1,0-.86,2A1.54,1.54,0,0,0,23,45.8ZM28,46a1,1,0,1,0-.58,1.33A1,1,0,0,0,28,46ZM12,39.57a2.57,2.57,0,1,0-1.43,3.34A2.57,2.57,0,0,0,12,39.57Z" style="fill:#fff"/></svg>