<svg xmlns="http://www.w3.org/2000/svg" xmlns:xlink="http://www.w3.org/1999/xlink" viewBox="0 0 79.41 43.15"><defs><linearGradient id="a" x1="9.78" y1="41.75" x2="20.37" y2="3.2" gradientUnits="userSpaceOnUse"><stop offset="0" stop-color="#7ac943"/><stop offset="0.5" stop-color="#57b185"/><stop offset="1" stop-color="#553c98"/></linearGradient></defs><title>HealthScholars-logo-compact</title><path d="M26.34,8.92a4.63,4.63,0,1,1,2.57-6A4.63,4.63,0,0,1,26.34,8.92ZM18,4.55A4.16,4.16,0,1,0,15.69,10,4.15,4.15,0,0,0,18,4.55ZM9.78,11.13a3.7,3.7,0,1,0-2.06,4.81A3.7,3.7,0,0,0,9.78,11.13ZM6.24,20a3.24,3.24,0,1,0-1.8,4.21A3.24,3.24,0,0,0,6.24,20ZM6.89,29a2.77,2.77,0,1,0-1.54,3.61A2.77,2.77,0,0,0,6.89,29Zm8.6,10.48a1.85,1.85,0,1,0-1,2.41A1.84,1.84,0,0,0,15.49,39.44Zm5.26,1.81a1.38,1.38,0,1,0-.77,1.8A1.38,1.38,0,0,0,20.75,41.25Zm4.47.14a.93.93,0,0,0-1.72.69.93.93,0,1,0,1.72-.69ZM10.8,35.64a2.31,2.31,0,1,0-1.28,3A2.31,2.31,0,0,0,10.8,35.64Z" style="fill:url(#a)"/><path d="M14.94,13.28h2.61V18h4.83v-4.7H25V25.17H22.38V20.4H17.55v4.77H14.94Z" style="fill:#553c98"/><path d="M26.85,13.28h9v2.33H29.45V18h5.6v2.33h-5.6v2.49H35.9v2.33h-9Z" style="fill:#553c98"/><path d="M42.05,13.19h2.42l5.09,12H46.83L45.74,22.5h-5l-1.09,2.67H37Zm2.76,7-1.58-3.85-1.58,3.85Z" style="fill:#553c98"/><path d="M50.87,13.28h2.62v9.51h5.93v2.38H50.87Z" style="fill:#553c98"/><path d="M61.41,15.69H57.79V13.28h9.85v2.41H64v9.48H61.41Z" style="fill:#553c98"/><path d="M69,13.28h2.61V18h4.83v-4.7h2.61V25.17H76.46V20.4H71.63v4.77H69Z" style="fill:#553c98"/><path d="M14.28,34.29l1.13-1.35A4,4,0,0,0,18,34c.78,0,1.25-.31,1.25-.82v0c0-.49-.3-.73-1.75-1.11-1.75-.44-2.88-.93-2.88-2.65v0c0-1.58,1.27-2.62,3-2.62a5,5,0,0,1,3.23,1.11l-1,1.44a4,4,0,0,0-2.26-.86c-.73,0-1.12.33-1.12.76v0c0,.57.37.76,1.88,1.14,1.76.46,2.75,1.1,2.75,2.61v0c0,1.72-1.31,2.69-3.19,2.69A5.55,5.55,0,0,1,14.28,34.29Z" style="fill:#7ac943"/><path d="M22,31.44v0a4.21,4.21,0,0,1,4.32-4.28,4.28,4.28,0,0,1,3.27,1.28l-1.16,1.33a3.05,3.05,0,0,0-2.12-.93,2.46,2.46,0,0,0-2.41,2.58v0A2.47,2.47,0,0,0,26.29,34a3,3,0,0,0,2.18-1l1.16,1.17a4.25,4.25,0,0,1-3.4,1.48A4.18,4.18,0,0,1,22,31.44Z" style="fill:#7ac943"/><path d="M30.68,27.27H32.5v3.28h3.37V27.27h1.82v8.29H35.87V32.23H32.5v3.33H30.68Z" style="fill:#7ac943"/><path d="M38.79,31.44v0a4.29,4.29,0,0,1,4.42-4.28,4.24,4.24,0,0,1,4.39,4.26v0a4.41,4.41,0,0,1-8.81,0Zm6.9,0v0a2.51,2.51,0,0,0-2.51-2.6,2.48,2.48,0,0,0-2.48,2.58v0A2.52,2.52,0,0,0,43.21,34,2.47,2.47,0,0,0,45.69,31.44Z" style="fill:#7ac943"/><path d="M48.69,27.27h1.82V33.9h4.14v1.66h-6Z" style="fill:#7ac943"/><path d="M59.05,27.21h1.68l3.55,8.35H62.37l-.75-1.86H58.11l-.76,1.86H55.49ZM61,32.09,59.86,29.4l-1.1,2.69Z" style="fill:#7ac943"/><path d="M65.19,27.27H69a3.29,3.29,0,0,1,2.42.84A2.6,2.6,0,0,1,72.11,30v0a2.57,2.57,0,0,1-1.78,2.57l2,3H70.23l-1.78-2.65H67v2.65H65.19Zm3.67,4c.89,0,1.4-.47,1.4-1.17v0c0-.78-.54-1.19-1.43-1.19H67v2.38Z" style="fill:#7ac943"/><path d="M72.85,34.35l1.08-1.29a3.85,3.85,0,0,0,2.48,1c.74,0,1.19-.3,1.19-.79v0c0-.46-.28-.7-1.67-1-1.67-.43-2.74-.89-2.74-2.54v0c0-1.51,1.2-2.5,2.9-2.5a4.86,4.86,0,0,1,3.08,1.05l-1,1.38a3.91,3.91,0,0,0-2.16-.82c-.7,0-1.06.32-1.06.72v0c0,.54.35.72,1.79,1.09,1.68.43,2.62,1,2.62,2.48v0c0,1.64-1.25,2.57-3,2.57A5.3,5.3,0,0,1,72.85,34.35Z" style="fill:#7ac943"/></svg>