<svg xmlns="http://www.w3.org/2000/svg" xmlns:xlink="http://www.w3.org/1999/xlink" viewBox="0 0 415.4 76.65"><defs><style>.a{fill:url(#a);}.b{fill:#553c98;}.c{fill:#7ac943;}</style><linearGradient id="a" x1="183.42" y1="72.99" x2="201.46" y2="3.49" gradientUnits="userSpaceOnUse"><stop offset="0" stop-color="#7ac943"/><stop offset="0.5" stop-color="#57b185"/><stop offset="1" stop-color="#553c98"/></linearGradient></defs><title>HealthScholars-logo-color</title><path class="a" d="M212.24,15.85a8.22,8.22,0,1,1,4.57-10.69A8.22,8.22,0,0,1,212.24,15.85Zm-14.8-7.77a7.4,7.4,0,1,0-4.11,9.62A7.4,7.4,0,0,0,197.44,8.08ZM182.83,19.77a6.57,6.57,0,1,0-3.66,8.55A6.57,6.57,0,0,0,182.83,19.77Zm-6.28,15.8a5.75,5.75,0,1,0-3.2,7.48A5.75,5.75,0,0,0,176.55,35.57Zm1.15,15.87A4.93,4.93,0,1,0,175,57.85,4.93,4.93,0,0,0,177.7,51.44ZM193,70.06a3.29,3.29,0,1,0-1.83,4.27A3.3,3.3,0,0,0,193,70.06Zm9.34,3.21A2.46,2.46,0,1,0,201,76.48,2.46,2.46,0,0,0,202.32,73.27Zm7.93.26a1.64,1.64,0,1,0-.91,2.13A1.64,1.64,0,0,0,210.25,73.53ZM184.65,63.3a4.11,4.11,0,1,0-2.28,5.34A4.1,4.1,0,0,0,184.65,63.3Z"/><path class="b" d="M0,29.06H6.31V40.42H18V29.06h6.31v28.7H18V46.24H6.31V57.76H0Z"/><path class="b" d="M28.74,29.06H50.39v5.62H35V40.5H48.54v5.62H35v6H50.59v5.61H28.74Z"/><path class="b" d="M65.44,28.86h5.82l12.3,28.9H77l-2.63-6.43H62.2l-2.63,6.43H53.14Zm6.64,16.89-3.82-9.31-3.81,9.31Z"/><path class="b" d="M86.71,29.06H93V52h14.31v5.74H86.71Z"/><path class="b" d="M112.13,34.89H103.4V29.06h23.78v5.83h-8.73V57.76h-6.32Z"/><path class="b" d="M130.5,29.06h6.32V40.42h11.64V29.06h6.31v28.7h-6.31V46.24H136.82V57.76H130.5Z"/><path class="c" d="M189.89,53.38l3.91-4.69c2.71,2.24,5.55,3.66,9,3.66,2.71,0,4.34-1.08,4.34-2.84v-.09c0-1.67-1-2.53-6.06-3.82-6.07-1.55-10-3.23-10-9.21v-.08c0-5.46,4.39-9.07,10.54-9.07a17.45,17.45,0,0,1,11.18,3.82l-3.44,5c-2.67-1.85-5.29-3-7.83-3s-3.87,1.16-3.87,2.63v.08c0,2,1.29,2.62,6.49,4,6.11,1.59,9.55,3.78,9.55,9v.08c0,6-4.56,9.33-11.05,9.33A19.16,19.16,0,0,1,189.89,53.38Z"/><path class="c" d="M216.53,43.5v-.09a14.59,14.59,0,0,1,15-14.84c5.41,0,8.65,1.81,11.32,4.43l-4,4.63c-2.21-2-4.47-3.24-7.34-3.24-4.84,0-8.32,4-8.32,8.94v.08c0,4.92,3.4,9,8.32,9,3.28,0,5.29-1.31,7.55-3.36l4,4.06a14.65,14.65,0,0,1-11.76,5.13A14.49,14.49,0,0,1,216.53,43.5Z"/><path class="c" d="M246.66,29.06H253V40.42h11.64V29.06h6.31v28.7h-6.31V46.24H253V57.76h-6.32Z"/><path class="c" d="M274.75,43.5v-.09c0-8.15,6.43-14.84,15.29-14.84s15.21,6.6,15.21,14.76v.08c0,8.16-6.44,14.85-15.29,14.85S274.75,51.66,274.75,43.5Zm23.9,0v-.09a8.72,8.72,0,0,0-8.69-9c-5.09,0-8.61,4-8.61,8.94v.08a8.72,8.72,0,0,0,8.69,9C295.12,52.43,298.65,48.42,298.65,43.5Z"/><path class="c" d="M309,29.06h6.32V52h14.31v5.74H309Z"/><path class="c" d="M344.88,28.86h5.82L363,57.76h-6.6l-2.62-6.43H341.64L339,57.76h-6.44Zm6.64,16.89-3.81-9.31-3.81,9.31Z"/><path class="c" d="M366.16,29.06h13.12c3.65,0,6.48,1,8.36,2.92a9,9,0,0,1,2.46,6.56v.08A8.9,8.9,0,0,1,384,47.51l7,10.25h-7.38l-6.15-9.18h-5v9.18h-6.31ZM378.87,43c3.07,0,4.84-1.64,4.84-4v-.09c0-2.7-1.89-4.1-5-4.1h-6.28V43Z"/><path class="c" d="M392.69,53.58l3.73-4.47A13.13,13.13,0,0,0,405,52.6c2.58,0,4.14-1,4.14-2.71v-.08c0-1.6-1-2.42-5.78-3.65-5.78-1.47-9.52-3.07-9.52-8.77v-.08c0-5.21,4.19-8.66,10.05-8.66a16.66,16.66,0,0,1,10.66,3.65l-3.28,4.76a13.48,13.48,0,0,0-7.46-2.83c-2.42,0-3.69,1.11-3.69,2.5v.08c0,1.89,1.23,2.5,6.19,3.78,5.82,1.51,9.1,3.6,9.1,8.61v.08c0,5.7-4.35,8.89-10.54,8.89A18.22,18.22,0,0,1,392.69,53.58Z"/></svg>