<svg xmlns="http://www.w3.org/2000/svg" viewBox="0 0 184.06 33.94"><title>HealthScholars-logo-light</title><path d="M94,7a3.64,3.64,0,1,1,2-4.73A3.65,3.65,0,0,1,94,7ZM87.43,3.58a3.28,3.28,0,1,0-1.82,4.26A3.28,3.28,0,0,0,87.43,3.58ZM81,8.76a2.91,2.91,0,1,0-1.62,3.78A2.9,2.9,0,0,0,81,8.76Zm-2.78,7a2.55,2.55,0,1,0-1.42,3.31A2.55,2.55,0,0,0,78.18,15.75Zm.51,7a2.18,2.18,0,1,0-1.21,2.84A2.19,2.19,0,0,0,78.69,22.78ZM85.45,31a1.46,1.46,0,1,0-.8,1.9A1.46,1.46,0,0,0,85.45,31Zm4.14,1.43a1.09,1.09,0,1,0-2,.81,1.09,1.09,0,0,0,2-.81Zm3.51.11a.73.73,0,1,0-.4.94A.73.73,0,0,0,93.1,32.56ZM81.77,28a1.82,1.82,0,0,0-3.38,1.35A1.82,1.82,0,1,0,81.77,28Z" style="fill:#fff"/><path d="M0,12.87H2.8v5H8v-5h2.8V25.58H8v-5.1H2.8v5.1H0Z" style="fill:#fff"/><path d="M12.73,12.87h9.58v2.49h-6.8v2.58h6v2.48h-6v2.67H22.4v2.49H12.73Z" style="fill:#fff"/><path d="M29,12.78h2.57L37,25.58H34.08l-1.16-2.85H27.54l-1.16,2.85H23.53Zm2.94,7.48-1.69-4.12-1.69,4.12Z" style="fill:#fff"/><path d="M38.4,12.87h2.79V23h6.34v2.54H38.4Z" style="fill:#fff"/><path d="M49.66,15.45H45.79V12.87H56.32v2.58H52.45V25.58H49.66Z" style="fill:#fff"/><path d="M57.79,12.87h2.79v5h5.16v-5h2.8V25.58h-2.8v-5.1H60.58v5.1H57.79Z" style="fill:#fff"/><path d="M84.08,23.64l1.74-2.08a6.1,6.1,0,0,0,4,1.62c1.2,0,1.92-.48,1.92-1.26v0c0-.75-.46-1.13-2.68-1.7-2.69-.68-4.42-1.43-4.42-4.07v0c0-2.42,1.94-4,4.66-4a7.69,7.69,0,0,1,5,1.7L92.71,16a6.31,6.31,0,0,0-3.47-1.31c-1.12,0-1.71.51-1.71,1.16v0c0,.88.57,1.16,2.88,1.75,2.7.71,4.22,1.68,4.22,4v0c0,2.64-2,4.13-4.89,4.13A8.48,8.48,0,0,1,84.08,23.64Z" style="fill:#fff"/><path d="M95.88,19.26v0a6.46,6.46,0,0,1,6.63-6.57,6.57,6.57,0,0,1,5,2l-1.78,2.06a4.7,4.7,0,0,0-3.25-1.44,3.77,3.77,0,0,0-3.69,4v0a3.78,3.78,0,0,0,3.69,4,4.59,4.59,0,0,0,3.34-1.49l1.78,1.8a6.49,6.49,0,0,1-5.21,2.27A6.42,6.42,0,0,1,95.88,19.26Z" style="fill:#fff"/><path d="M109.23,12.87H112v5h5.16v-5H120V25.58h-2.79v-5.1H112v5.1h-2.79Z" style="fill:#fff"/><path d="M121.66,19.26v0a6.76,6.76,0,0,1,13.51,0v0a6.76,6.76,0,0,1-13.51,0Zm10.59,0v0a3.86,3.86,0,0,0-3.85-4,3.8,3.8,0,0,0-3.81,4v0a3.86,3.86,0,0,0,3.84,4A3.8,3.8,0,0,0,132.25,19.26Z" style="fill:#fff"/><path d="M136.84,12.87h2.8V23H146v2.54h-9.13Z" style="fill:#fff"/><path d="M152.84,12.78h2.58l5.44,12.8h-2.92l-1.16-2.85H151.4l-1.16,2.85h-2.85Zm2.94,7.48-1.69-4.12-1.69,4.12Z" style="fill:#fff"/><path d="M162.26,12.87h5.81a5,5,0,0,1,3.7,1.29,4,4,0,0,1,1.09,2.9v0A4,4,0,0,1,170.14,21l3.1,4.54H170l-2.72-4.07h-2.2v4.07h-2.79ZM167.89,19c1.36,0,2.14-.72,2.14-1.79v0c0-1.2-.84-1.82-2.2-1.82h-2.78V19Z" style="fill:#fff"/><path d="M174,23.73l1.65-2a5.83,5.83,0,0,0,3.79,1.54c1.15,0,1.84-.45,1.84-1.2v0c0-.71-.44-1.07-2.56-1.62-2.56-.65-4.22-1.36-4.22-3.88v0c0-2.31,1.86-3.83,4.45-3.83a7.38,7.38,0,0,1,4.72,1.61l-1.45,2.11a6,6,0,0,0-3.3-1.25c-1.08,0-1.64.49-1.64,1.11v0c0,.84.55,1.11,2.74,1.67,2.58.67,4,1.6,4,3.81v0c0,2.52-1.92,3.94-4.66,3.94A8.07,8.07,0,0,1,174,23.73Z" style="fill:#fff"/></svg>