<svg xmlns="http://www.w3.org/2000/svg" xmlns:xlink="http://www.w3.org/1999/xlink" viewBox="0 0 155.76 37.64"><defs><linearGradient id="a" x1="68.55" y1="27.81" x2="75.61" y2="2.13" gradientUnits="userSpaceOnUse"><stop offset="0" stop-color="#7ac943"/><stop offset="0.5" stop-color="#57b185"/><stop offset="1" stop-color="#553c98"/></linearGradient></defs><title>HealthScholars-Analytics-logo</title><path d="M79.58,5.94a3.08,3.08,0,1,1,1.72-4A3.08,3.08,0,0,1,79.58,5.94ZM74,3a2.77,2.77,0,1,0-1.54,3.61A2.77,2.77,0,0,0,74,3ZM68.56,7.41a2.47,2.47,0,1,0-1.37,3.21A2.48,2.48,0,0,0,68.56,7.41ZM66.2,13.34a2.15,2.15,0,1,0-1.2,2.8A2.14,2.14,0,0,0,66.2,13.34Zm.43,5.95a1.85,1.85,0,1,0-1,2.4A1.84,1.84,0,0,0,66.63,19.29Zm5.73,7a1.22,1.22,0,0,0-1.6-.68,1.23,1.23,0,1,0,1.6.68Zm3.5,1.2a.92.92,0,1,0-.51,1.21A.93.93,0,0,0,75.86,27.47Zm3,.1a.62.62,0,0,0-1.15.46.62.62,0,0,0,1.15-.46Zm-9.6-3.83a1.54,1.54,0,1,0-.86,2A1.54,1.54,0,0,0,69.24,23.74Z" style="fill:url(#a)"/><path d="M0,10.9H2.37v4.26H6.73V10.9H9.1V21.66H6.73V17.34H2.37v4.32H0Z" style="fill:#553c98"/><path d="M10.78,10.9h8.11V13H13.13v2.19H18.2v2.1H13.13v2.26H19v2.11H10.78Z" style="fill:#553c98"/><path d="M24.54,10.82h2.18l4.61,10.84H28.86l-1-2.41H23.32l-1,2.41H19.92ZM27,17.16,25.6,13.67l-1.43,3.49Z" style="fill:#553c98"/><path d="M32.52,10.9h2.36v8.61h5.37v2.15H32.52Z" style="fill:#553c98"/><path d="M42.05,13.08H38.77V10.9h8.92v2.18H44.41v8.58H42.05Z" style="fill:#553c98"/><path d="M48.93,10.9H51.3v4.26h4.37V10.9H58V21.66H55.67V17.34H51.3v4.32H48.93Z" style="fill:#553c98"/><path d="M71.2,20l1.47-1.76A5.16,5.16,0,0,0,76,19.63c1,0,1.63-.4,1.63-1.07v0c0-.63-.39-1-2.28-1.43-2.27-.58-3.74-1.21-3.74-3.45v0c0-2,1.65-3.4,3.95-3.4a6.55,6.55,0,0,1,4.2,1.44l-1.29,1.87a5.26,5.26,0,0,0-2.94-1.11c-.95,0-1.45.43-1.45,1v0c0,.74.48,1,2.43,1.48,2.29.6,3.58,1.42,3.58,3.39v0c0,2.24-1.7,3.5-4.14,3.5A7.23,7.23,0,0,1,71.2,20Z" style="fill:#7ac943"/><path d="M81.19,16.31v0a5.48,5.48,0,0,1,5.61-5.57,5.58,5.58,0,0,1,4.25,1.66l-1.51,1.74a4,4,0,0,0-2.75-1.21,3.18,3.18,0,0,0-3.12,3.35v0a3.19,3.19,0,0,0,3.12,3.38,3.89,3.89,0,0,0,2.83-1.26l1.5,1.52a5.67,5.67,0,0,1-9.93-3.61Z" style="fill:#7ac943"/><path d="M92.49,10.9h2.37v4.26h4.36V10.9h2.37V21.66H99.22V17.34H94.86v4.32H92.49Z" style="fill:#7ac943"/><path d="M103,16.31v0a5.57,5.57,0,0,1,5.74-5.57,5.52,5.52,0,0,1,5.7,5.54v0a5.72,5.72,0,0,1-11.44,0Zm9,0v0a3.26,3.26,0,0,0-3.25-3.38,3.21,3.21,0,0,0-3.23,3.35v0a3.27,3.27,0,0,0,3.26,3.38A3.22,3.22,0,0,0,112,16.31Z" style="fill:#7ac943"/><path d="M115.87,10.9h2.37v8.61h5.37v2.15h-7.74Z" style="fill:#7ac943"/><path d="M129.32,10.82h2.18l4.62,10.84h-2.48l-1-2.41h-4.55l-1,2.41h-2.41Zm2.49,6.34-1.43-3.49L129,17.16Z" style="fill:#7ac943"/><path d="M137.3,10.9h4.92A4.25,4.25,0,0,1,145.35,12a3.37,3.37,0,0,1,.93,2.46v0A3.35,3.35,0,0,1,144,17.82l2.63,3.84h-2.77l-2.3-3.44h-1.86v3.44H137.3Zm4.76,5.23c1.16,0,1.82-.62,1.82-1.53v0c0-1-.71-1.53-1.86-1.53h-2.35v3.09Z" style="fill:#7ac943"/><path d="M147.25,20.09l1.39-1.67a5,5,0,0,0,3.22,1.3c1,0,1.55-.38,1.55-1v0c0-.6-.37-.91-2.17-1.37-2.16-.55-3.56-1.15-3.56-3.29v0c0-2,1.56-3.25,3.76-3.25a6.27,6.27,0,0,1,4,1.37l-1.23,1.79a5,5,0,0,0-2.8-1.06c-.91,0-1.38.41-1.38.93v0c0,.71.46.94,2.32,1.42,2.18.57,3.41,1.35,3.41,3.23v0c0,2.13-1.63,3.33-3.95,3.33A6.84,6.84,0,0,1,147.25,20.09Z" style="fill:#7ac943"/><path d="M82.16,33v-.25c0-1.87.81-2.79,2.06-2.79a2.65,2.65,0,0,1,1.26.33v-.7c0-1-.46-1.55-1.36-1.55a3.48,3.48,0,0,0-1.52.41V27a4.48,4.48,0,0,1,1.74-.38,2.66,2.66,0,0,1,2,.69,3,3,0,0,1,.74,2.22v6H85.46v-1a1.66,1.66,0,0,1-1.53,1.19C82.88,35.64,82.16,34.6,82.16,33Zm3.32,0V31.46a2.16,2.16,0,0,0-.86-.23c-.59,0-.94.49-.94,1.45v.2c0,1,.33,1.44.84,1.44S85.48,33.79,85.48,33Z" style="fill:#929497"/><path d="M88.22,26.68H89.8V27.8a1.84,1.84,0,0,1,1.63-1.27c1.14,0,1.79,1,1.79,2.45v6.51H91.65V29.31c0-.9-.33-1.38-.88-1.38s-1,.53-1,1.41v6.15H88.22Z" style="fill:#929497"/><path d="M94.11,33v-.25c0-1.87.81-2.79,2.07-2.79a2.65,2.65,0,0,1,1.25.33v-.7c0-1-.46-1.55-1.35-1.55a3.41,3.41,0,0,0-1.52.41V27a4.44,4.44,0,0,1,1.73-.38,2.66,2.66,0,0,1,2,.69A3,3,0,0,1,99,29.49v6H97.42v-1a1.67,1.67,0,0,1-1.54,1.19C94.84,35.64,94.11,34.6,94.11,33Zm3.32,0V31.46a2.07,2.07,0,0,0-.85-.23c-.6,0-1,.49-1,1.45v.2c0,1,.33,1.44.85,1.44S97.43,33.79,97.43,33Z" style="fill:#929497"/><path d="M100.23,23.81h1.57V35.49h-1.57Z" style="fill:#929497"/><path d="M106.58,26.68h1.54l-2.5,11H104.1l.54-2.4-1.9-8.56h1.55l1.11,5.88Z" style="fill:#929497"/><path d="M109.57,34V28h-.63v-1.3h.63V24.36h1.57v2.32h1.14V28h-1.14v5.51c0,.51.25.68.65.68a1.19,1.19,0,0,0,.49-.1v1.29a2.31,2.31,0,0,1-1,.23C110.36,35.59,109.57,35.26,109.57,34Z" style="fill:#929497"/><path d="M113.27,23.81h1.62v1.73h-1.62Zm0,2.87h1.58v8.81H113.3Z" style="fill:#929497"/><path d="M115.78,31.31v-.42c0-2.89,1.23-4.33,2.75-4.33a2.28,2.28,0,0,1,1.17.25v1.62a1.92,1.92,0,0,0-1-.35c-.7,0-1.33.78-1.33,2.78v.48c0,2,.63,2.78,1.38,2.78a1.76,1.76,0,0,0,1-.4v1.57a2.09,2.09,0,0,1-1.2.35C116.93,35.64,115.78,34.22,115.78,31.31Z" style="fill:#929497"/><path d="M120.48,35.23V33.66a3.92,3.92,0,0,0,1.7.56.84.84,0,0,0,.91-.89c0-.45-.21-.83-1.1-1.69s-1.56-1.75-1.56-2.8v0a2.17,2.17,0,0,1,2.35-2.25,3.8,3.8,0,0,1,1.44.25v1.55a3.16,3.16,0,0,0-1.37-.38.8.8,0,0,0-.9.8c0,.44.2.74,1.16,1.67,1.13,1.11,1.51,1.82,1.51,2.81v0a2.26,2.26,0,0,1-2.35,2.35A4.42,4.42,0,0,1,120.48,35.23Z" style="fill:#929497"/></svg>