<svg xmlns="http://www.w3.org/2000/svg" xmlns:xlink="http://www.w3.org/1999/xlink" viewBox="0 0 51.95 76.65"><defs><linearGradient id="a" x1="17.96" y1="72.99" x2="36" y2="3.49" gradientUnits="userSpaceOnUse"><stop offset="0" stop-color="#7ac943"/><stop offset="0.5" stop-color="#57b185"/><stop offset="1" stop-color="#553c98"/></linearGradient></defs><title>HealthScholars-icon-color</title><path d="M46.79,15.85A8.22,8.22,0,1,1,51.35,5.16,8.23,8.23,0,0,1,46.79,15.85ZM32,8.08a7.4,7.4,0,1,0-4.11,9.62A7.39,7.39,0,0,0,32,8.08ZM17.37,19.77a6.57,6.57,0,1,0-3.65,8.55A6.57,6.57,0,0,0,17.37,19.77Zm-6.28,15.8a5.75,5.75,0,1,0-3.2,7.48A5.75,5.75,0,0,0,11.09,35.57Zm1.15,15.87A4.93,4.93,0,1,0,9.5,57.85,4.93,4.93,0,0,0,12.24,51.44ZM27.52,70.06a3.29,3.29,0,1,0-1.83,4.27A3.29,3.29,0,0,0,27.52,70.06Zm9.34,3.21a2.46,2.46,0,1,0-1.37,3.21A2.46,2.46,0,0,0,36.86,73.27Zm7.93.26a1.64,1.64,0,1,0-.91,2.13A1.64,1.64,0,0,0,44.79,73.53ZM19.19,63.3a4.11,4.11,0,1,0-2.28,5.34A4.1,4.1,0,0,0,19.19,63.3Z" style="fill:url(#a)"/></svg>