<svg xmlns="http://www.w3.org/2000/svg" width="558" height="129" viewBox="0 0 558 129">
  <g fill="none">
    <g fill="#FFF" transform="translate(0 80.243)">
      <polygon points="0 .727 4.951 .727 4.951 12.058 17.779 12.058 17.779 .727 22.73 .727 22.73 27.264 17.779 27.264 17.779 16.495 4.951 16.495 4.951 27.264 0 27.264"/>
      <polygon points="40.25 .727 59.192 .727 59.192 5.164 45.201 5.164 45.201 11.721 57.756 11.721 57.756 16.158 45.201 16.158 45.201 22.869 59.629 22.869 59.629 27.306 40.25 27.306"/>
      <path d="M94.86,27.2641633 L92.5760294,21.6478367 L79.9389706,21.6478367 L77.655,27.2641633 L72.4852941,27.2641633 L83.8230882,0.727020408 L88.9517647,0.727020408 L100.139118,27.2641633 L94.86,27.2641633 Z M81.7169118,17.2530612 L90.7980882,17.2530612 L86.2985294,6.14677551 L81.7169118,17.2530612 Z"/>
      <polygon points="114.404 .727 119.341 .727 119.341 22.673 130.501 22.673 130.501 27.264 114.404 27.264"/>
      <polygon points="142.577 .727 163.653 .727 163.653 5.234 155.611 5.234 155.611 27.264 150.619 27.264 150.619 5.234 142.577 5.234"/>
      <polygon points="178.245 .727 183.265 .727 183.265 12.058 196.148 12.058 196.148 .727 201.044 .727 201.044 27.264 196.093 27.264 196.093 16.495 183.265 16.495 183.265 27.264 178.314 27.264"/>
      <path d="M291.035294 5.61322449C289.848949 5.19996153 288.608677 4.97275325 287.356324 4.93926531 286.37852 4.8875593 285.406448 5.12122998 284.552647 5.61322449 283.9014 6.00924024 283.505235 6.73170001 283.513235 7.50873469 283.498913 8.19796247 283.760981 8.86297333 284.238088 9.34808163 284.759318 9.86864851 285.371881 10.2831387 286.043382 10.5696327 286.781912 10.8785306 287.766618 11.229551 289.024853 11.6086531 290.48896 12.0393325 291.923588 12.5693697 293.319265 13.1952653 294.447024 13.7337132 295.432083 14.5427544 296.191324 15.5541224 297.018345 16.7422578 297.432565 18.1812004 297.3675 19.64 297.395243 21.1478916 296.94926 22.6248712 296.095588 23.8522449 295.208673 25.1131471 293.989145 26.0874792 292.580735 26.6604082 290.95366 27.3215363 289.215356 27.6460115 287.465735 27.6151837 285.44258 27.6103625 283.438348 27.2150316 281.5575 26.4497959 279.722212 25.7275445 278.023677 24.682224 276.538235 23.3608163L278.603382 19.0362449C279.891925 20.2689478 281.382876 21.2577039 283.007206 21.9567347 284.434375 22.6255175 285.979357 22.9886099 287.547794 23.0238367 288.683311 23.0919572 289.81257 22.8082362 290.789118 22.2094694 291.44058 21.7744053 291.869522 21.0641304 291.959407 20.2716138 292.049292 19.4790972 291.790785 18.6866445 291.254118 18.109551 290.729358 17.5869931 290.105565 17.1807624 289.421471 16.9160816 288.682941 16.6212245 287.684559 16.2702041 286.398971 15.891102 284.940115 15.4748254 283.510012 14.958844 282.118235 14.3466122 281.000859 13.829406 280.024092 13.038746 279.273529 12.0439184 278.442622 10.8790656 278.027326 9.45621525 278.097353 8.01420408 278.067376 6.57101098 278.48396 5.15523396 279.287206 3.97044898 280.15691 2.77164293 281.336761 1.84737086 282.692647 1.30269388 284.305018.64020282 286.030196.315573957 287.766618.347918367 289.448689.34994485 291.121366.605401546 292.731176 1.10612245 294.277795 1.57157656 295.751562 2.26189573 297.107647 3.15608163L295.110882 7.59297959C293.833041 6.77057571 292.46503 6.10605117 291.035294 5.61322449zM328.631912 5.85191837C327.453265 5.25556847 326.157534 4.94341612 324.843529 4.93926531 323.301684 4.92655486 321.783444 5.32832807 320.439706 6.10465306 319.124842 6.87395704 318.037748 7.99486411 317.294118 9.34808163 315.762128 12.1619969 315.762128 15.5904929 317.294118 18.4044082 318.032803 19.7640062 319.1147 20.8941273 320.426029 21.6759184 321.762602 22.4733694 323.284043 22.8856914 324.829853 22.8693878 326.107478 22.8563903 327.368923 22.5744421 328.536176 22.0409796 329.770742 21.4878675 330.893367 20.7020506 331.845882 19.7242449L334.758971 23.0519184C333.409216 24.4694255 331.807591 25.6085158 330.040588 26.4076735 328.323504 27.2145805 326.458405 27.6358333 324.57 27.6432653 322.173162 27.6689306 319.812893 27.0389123 317.731765 25.8179592 315.703477 24.6526515 314.020856 22.9446137 312.862941 20.8755918 311.677174 18.7733159 311.063139 16.3826704 311.085 13.9534694 311.054191 9.05333589 313.642926 4.53039363 317.8275 2.17322449 321.624569.0594234804 326.149119-.177991978 330.136324 1.52734694 331.864045 2.21096322 333.430442 3.26390318 334.731618 4.61632653L331.859559 8.32310204C330.959883 7.28112626 329.861292 6.44001179 328.631912 5.85191837z"/>
      <polygon points="349.913 .727 354.863 .727 354.863 12.058 367.747 12.058 367.747 .727 372.697 .727 372.697 27.264 367.747 27.264 367.747 16.495 354.863 16.495 354.863 27.264 349.913 27.264"/>
      <path d="M408.926471,2.17322449 C412.032079,3.94681078 414.309751,6.93125921 415.244156,10.4513281 C416.178562,13.971397 415.690728,17.729586 413.891029,20.8755918 C412.70038,22.9523607 410.985019,24.6600545 408.926471,25.8179592 C404.56422,28.2524194 399.297692,28.2524194 394.935441,25.8179592 C390.703027,23.4563835 388.076255,18.8988772 388.097206,13.9534694 C388.070169,9.0280539 390.702949,4.49255866 394.935441,2.17322449 C399.311882,-0.203242997 404.55003,-0.203242997 408.926471,2.17322449 Z M397.616029,6.13273469 C395.586706,7.34136792 394.108955,9.32901177 393.508609,11.6574046 C392.908263,13.9857974 393.234625,16.4637231 394.415735,18.5448163 C395.195858,19.9077404 396.302148,21.0435025 397.629706,21.8444082 C398.956664,22.6425356 400.468276,23.0596038 402.006176,23.0519184 C403.526592,23.0578329 405.020138,22.6405332 406.327941,21.8444082 C407.642327,21.0449508 408.731171,19.9077427 409.487206,18.5448163 C410.260333,17.1455696 410.661253,15.562117 410.649706,13.9534694 C410.660961,12.3537492 410.2599,10.7794293 409.487206,9.39020408 C408.729556,8.03954909 407.640263,6.91639582 406.327941,6.13273469 C405.019038,5.34087125 403.525401,4.92839862 402.006176,4.93926531 C400.456073,4.92320726 398.93029,5.33542586 397.588676,6.13273469 L397.616029,6.13273469 Z"/>
      <polygon points="431.11 .727 436.061 .727 436.061 22.673 447.221 22.673 447.221 27.264 431.11 27.264"/>
      <path d="M481.480147 27.2641633L479.196176 21.6478367 466.559118 21.6478367 464.275147 27.2641633 459.132794 27.2641633 470.470588.727020408 475.612941.727020408 486.800294 27.2641633 481.480147 27.2641633zM468.337059 17.2530612L477.418235 17.2530612 472.918676 6.10465306 468.337059 17.2530612zM517.189412 27.2641633L512.717206 19.4153469C512.412064 19.4349648 512.106025 19.4349648 511.800882 19.4153469L506.029412 19.4153469 506.029412 27.2220408 501.078529 27.2220408 501.078529.727020408 511.869265.727020408C514.648497.549369585 517.398257 1.39577593 519.623824 3.11395918 521.489579 4.82022567 522.496447 7.30625342 522.359118 9.86759184 522.415297 11.7263637 521.965349 13.5643782 521.059853 15.1750204 520.15367 16.6614341 518.813505 17.8161804 517.230441 18.4746122L522.919853 27.2641633 517.189412 27.2641633zM506.029412 14.978449L511.869265 14.978449C513.393893 15.0816041 514.906335 14.6400918 516.15 13.7288163 517.181612 12.7936227 517.728059 11.4170833 517.627059 10.008 517.723429 8.62406956 517.175514 7.27508354 516.15 6.37142857 514.893599 5.4913791 513.387272 5.06647422 511.869265 5.16391837L506.029412 5.16391837 506.029412 14.978449zM550.956618 5.61322449C549.770272 5.19996153 548.53 4.97275325 547.277647 4.93926531 546.300045 4.889854 545.328584 5.12337792 544.473971 5.61322449 543.825878 6.01067668 543.43455 6.73383356 543.448235 7.50873469 543.428687 8.19619257 543.685941 8.8615397 544.159412 9.34808163 544.68342 9.8717672 545.301068 10.2865555 545.978382 10.5696327 546.949384 10.9686942 547.939994 11.3155051 548.946176 11.6086531 550.411017 12.0369951 551.845796 12.5670882 553.240588 13.1952653 554.368347 13.7337132 555.353407 14.5427544 556.112647 15.5541224 556.939669 16.7422578 557.353889 18.1812004 557.288824 19.64 557.316566 21.1478916 556.870584 22.6248712 556.016912 23.8522449 555.129997 25.1131471 553.910469 26.0874792 552.502059 26.6604082 550.879746 27.3215008 549.145915 27.6460087 547.400735 27.6151837 545.373011 27.6117891 543.364041 27.2164388 541.478824 26.4497959 539.643535 25.7275445 537.945 24.682224 536.459559 23.3608163L538.524706 19.0362449C539.824682 20.2567209 541.324902 21.2312215 542.955882 21.9146122 544.383052 22.583395 545.928034 22.9464874 547.496471 22.9817143 548.631988 23.0498348 549.761247 22.7661138 550.737794 22.1673469 551.389257 21.7322829 551.818198 21.022008 551.908083 20.2294914 551.997968 19.4369747 551.739461 18.644522 551.202794 18.0674286 550.679703 17.5495193 550.061342 17.1437985 549.383824 16.8739592 548.645294 16.579102 547.633235 16.2280816 546.347647 15.8489796 544.888792 15.432703 543.458688 14.9167216 542.066912 14.3044898 540.949535 13.7872835 539.972768 12.9966236 539.222206 12.0017959 538.391298 10.8369432 537.976002 9.41409281 538.046029 7.97208163 538.016052 6.52888853 538.432637 5.11311152 539.235882 3.92832653 540.105586 2.72952048 541.285437 1.80524841 542.641324 1.26057143 544.253695.598080371 545.978872.273451508 547.715294.305795918 549.39744.306804745 551.07026.562283464 552.679853 1.064 554.227468 1.52670332 555.701608 2.21719749 557.056324 3.11395918L555.059559 7.55085714C553.771155 6.74107092 552.393931 6.09067021 550.956618 5.61322449z"/>
    </g>
    <g transform="translate(189.06)">
      <path fill="#70D44B" d="M51.7480757 24.4002128C56.613995 24.4002128 60.558602 20.4679392 60.558602 15.617234 60.5723684 10.7591489 51.7480757 0 51.7480757 0 51.7480757 0 42.9375493 10.7591489 42.9375493 15.617234 42.9338879 17.9477419 43.8609613 20.1838482 45.5140499 21.8317681 47.1671384 23.479688 49.4102583 24.4038627 51.7480757 24.4002128zM51.7480757 40.0037234C56.6108516 40.01128 60.5510216 43.9391304 60.558602 48.7867021 60.558602 53.6447872 51.7480757 64.4039362 51.7480757 64.4039362 51.7480757 64.4039362 42.9375493 53.6447872 42.9375493 48.7867021 42.9375493 43.9359969 46.8821563 40.0037234 51.7480757 40.0037234zM45.9661678 32.2637234C45.9661914 27.4161375 42.0321745 23.4821463 37.1694079 23.4670213 32.2960855 23.4670213 21.5031908 32.2637234 21.5031908 32.2637234 21.5031908 32.2637234 32.2960855 41.0467021 37.1694079 41.0467021 42.0268069 41.0315996 45.9586135 37.1059526 45.9661678 32.2637234zM57.5162171 32.2637234C57.5162171 27.405439 61.4669875 23.4670213 66.3405099 23.4670213 71.2000658 23.4670213 81.9929605 32.2637234 81.9929605 32.2637234 81.9929605 32.2637234 71.2000658 41.0467021 66.3405099 41.0467021 61.4723586 41.046708 57.5238117 37.1166477 57.5162171 32.2637234zM36.7564145 17.5110638C40.1506255 14.0892502 40.1506255 8.58181364 36.7564145 5.16 33.3148026 1.66053191 19.4519901.260744681 19.4519901.260744681 19.4519901.260744681 20.8286349 14.0802128 24.2977796 17.5110638 27.7383519 20.940146 33.3158422 20.940146 36.7564145 17.5110638zM17.3732566 27.5291489C20.7674676 24.1073353 20.7674676 18.5998987 17.3732566 15.1780851 13.9316447 11.678617 0 10.2788298 0 10.2788298 0 10.2788298 1.37664474 24.0982979 4.84578947 27.5291489 6.50257891 29.193546 8.75738071 30.1296771 11.109523 30.1296771 13.4616653 30.1296771 15.7164671 29.193546 17.3732566 27.5291489zM17.3732566 36.9571277C20.7674676 40.3789413 20.7674676 45.8863778 17.3732566 49.3081915 13.9316447 52.8076596 0 54.2074468 0 54.2074468 0 54.2074468 1.37664474 40.3879787 4.84578947 36.9571277 6.50257891 35.2927306 8.75738071 34.3565995 11.109523 34.3565995 13.4616653 34.3565995 15.7164671 35.2927306 17.3732566 36.9571277zM36.7564145 46.8654255C33.3238684 43.4818271 27.7991579 43.4818271 24.3666118 46.8654255 20.925 50.2962766 19.5208224 64.1294681 19.5208224 64.1294681 19.5208224 64.1294681 33.3836349 62.7571277 36.8252467 59.2988298 40.2477217 55.8454046 40.2169167 50.280984 36.7564145 46.8654255zM66.6296053 17.5110638C63.2353942 14.0892502 63.2353942 8.58181364 66.6296053 5.16 70.0712171 1.66053191 83.9753289.260744681 83.9753289.260744681 83.9753289.260744681 82.5986842 14.0802128 79.1295395 17.5110638 77.4756476 19.1704131 75.22608 20.1035246 72.8795724 20.1035246 70.5330648 20.1035246 68.2834972 19.1704131 66.6296053 17.5110638zM86.0127632 27.5291489C82.6185521 24.1073353 82.6185521 18.5998987 86.0127632 15.1780851 89.454375 11.747234 103.317187 10.3474468 103.317187 10.3474468 103.317187 10.3474468 101.940543 24.1669149 98.471398 27.597766 95.0118515 31.007973 89.4342996 30.9772541 86.0127632 27.5291489zM86.0127632 36.9571277C82.6185521 40.3789413 82.6185521 45.8863778 86.0127632 49.3081915 89.454375 52.7390426 103.317187 54.1388298 103.317187 54.1388298 103.317187 54.1388298 101.940543 40.3193617 98.471398 36.8885106 95.0118515 33.4783036 89.4342996 33.5090224 86.0127632 36.9571277zM66.6296053 46.8654255C70.0621513 43.4818271 75.5868618 43.4818271 79.0194079 46.8654255 82.5986842 50.2962766 83.9753289 64.1294681 83.9753289 64.1294681 83.9753289 64.1294681 70.1125164 62.7571277 66.6709046 59.2988298 63.2180552 55.8756783 63.1995723 50.3112968 66.6296053 46.8654255z"/>
      <path fill="#FFF" d="M69.4104276,67.7661702 L61.5910855,64.3215957 C57.2881561,69.2008575 53.9527799,74.849543 51.7618421,80.9680851 C49.5615774,74.8550361 46.2219434,69.2117063 41.9188322,64.3353191 L34.0857237,67.7798936 C41.6823836,75.2373905 46.1884839,85.2697122 46.7095559,95.8854255 C46.4264061,106.816021 41.9010518,117.210979 34.0857237,124.882979 L41.9188322,128.327553 C46.2189913,123.449033 49.5582772,117.806292 51.7618421,111.694787 C53.9608382,117.793054 57.2957299,123.422294 61.5910855,128.286383 L69.4104276,124.855532 C61.6087004,117.183578 57.0978887,106.792936 56.8278947,95.8717021 C57.3339304,85.2607378 61.8255613,75.2278075 69.4104276,67.7661702 Z"/>
    </g>
  </g>
</svg>
